<svg id="mermaid-1637476750926" width="100%" xmlns="http://www.w3.org/2000/svg" height="450" style="max-width: 784px;" viewBox="0 0 784 450"><style>#mermaid-1637476750926 {font-family:"trebuchet ms",verdana,arial,sans-serif;font-size:16px;fill:#333;}#mermaid-1637476750926 .error-icon{fill:#552222;}#mermaid-1637476750926 .error-text{fill:#552222;stroke:#552222;}#mermaid-1637476750926 .edge-thickness-normal{stroke-width:2px;}#mermaid-1637476750926 .edge-thickness-thick{stroke-width:3.5px;}#mermaid-1637476750926 .edge-pattern-solid{stroke-dasharray:0;}#mermaid-1637476750926 .edge-pattern-dashed{stroke-dasharray:3;}#mermaid-1637476750926 .edge-pattern-dotted{stroke-dasharray:2;}#mermaid-1637476750926 .marker{fill:#333333;stroke:#333333;}#mermaid-1637476750926 .marker.cross{stroke:#333333;}#mermaid-1637476750926 svg{font-family:"trebuchet ms",verdana,arial,sans-serif;font-size:16px;}#mermaid-1637476750926 .pieCircle{stroke:black;stroke-width:2px;opacity:0.7;}#mermaid-1637476750926 .pieTitleText{text-anchor:middle;font-size:25px;fill:black;font-family:"trebuchet ms",verdana,arial,sans-serif;}#mermaid-1637476750926 .slice{font-family:"trebuchet ms",verdana,arial,sans-serif;fill:#333;font-size:17px;}#mermaid-1637476750926 .legend text{fill:black;font-family:"trebuchet ms",verdana,arial,sans-serif;font-size:17px;}#mermaid-1637476750926 :root{--mermaid-font-family:"trebuchet ms",verdana,arial,sans-serif;}</style><g></g><g transform="translate(392,225)"><path d="M1.1327982892113017e-14,-185A185,185,0,0,1,175.9454555146034,57.16814395936527L0,0Z" fill="#ECECFF" class="pieCircle"></path><path d="M175.9454555146034,57.16814395936527A185,185,0,0,1,-108.7402716741075,149.66814395936527L0,0Z" fill="#ffffde" class="pieCircle"></path><path d="M-108.7402716741075,149.66814395936527A185,185,0,0,1,-108.74027167410755,-149.66814395936527L0,0Z" fill="hsl(80, 100%, 56.2745098039%)" class="pieCircle"></path><path d="M-108.74027167410755,-149.66814395936527A185,185,0,0,1,-57.1681439593653,-175.9454555146034L0,0Z" fill="hsl(240, 100%, 86.2745098039%)" class="pieCircle"></path><path d="M-57.1681439593653,-175.9454555146034A185,185,0,0,1,-3.398394867633905e-14,-185L0,0Z" fill="hsl(60, 100%, 63.5294117647%)" class="pieCircle"></path><text transform="translate(74.83407197968263,-54.370135837053766)" class="slice" style="text-anchor: middle;">30%</text><text transform="translate(28.58407197968264,87.9727277573017)" class="slice" style="text-anchor: middle;">30%</text><text transform="translate(-92.5,1.1327982892113017e-14)" class="slice" style="text-anchor: middle;">30%</text><text transform="translate(-41.99412122590809,-82.41810348742402)" class="slice" style="text-anchor: middle;">5%</text><text transform="translate(-14.470188016221371,-91.36117150505024)" class="slice" style="text-anchor: middle;">5%</text><text x="0" y="-200" class="pieTitleText"></text><g class="legend" transform="translate(216,-55)"><rect width="18" height="18" style="fill: rgb(236, 236, 255); stroke: rgb(236, 236, 255);"></rect><text x="22" y="14">SPQ</text></g><g class="legend" transform="translate(216,-33)"><rect width="18" height="18" style="fill: rgb(255, 255, 222); stroke: rgb(255, 255, 222);"></rect><text x="22" y="14">Pap</text></g><g class="legend" transform="translate(216,-11)"><rect width="18" height="18" style="fill: rgb(181, 255, 32); stroke: rgb(181, 255, 32);"></rect><text x="22" y="14">Rav</text></g><g class="legend" transform="translate(216,11)"><rect width="18" height="18" style="fill: rgb(185, 185, 255); stroke: rgb(185, 185, 255);"></rect><text x="22" y="14">Zak</text></g><g class="legend" transform="translate(216,33)"><rect width="18" height="18" style="fill: rgb(255, 255, 69); stroke: rgb(255, 255, 69);"></rect><text x="22" y="14">BF/HH</text></g></g></svg>