<svg id="mermaid-1637499466041" width="100%" xmlns="http://www.w3.org/2000/svg" height="450" style="max-width: 784px;" viewBox="0 0 784 450"><style>#mermaid-1637499466041 {font-family:"trebuchet ms",verdana,arial,sans-serif;font-size:16px;fill:#333;}#mermaid-1637499466041 .error-icon{fill:#552222;}#mermaid-1637499466041 .error-text{fill:#552222;stroke:#552222;}#mermaid-1637499466041 .edge-thickness-normal{stroke-width:2px;}#mermaid-1637499466041 .edge-thickness-thick{stroke-width:3.5px;}#mermaid-1637499466041 .edge-pattern-solid{stroke-dasharray:0;}#mermaid-1637499466041 .edge-pattern-dashed{stroke-dasharray:3;}#mermaid-1637499466041 .edge-pattern-dotted{stroke-dasharray:2;}#mermaid-1637499466041 .marker{fill:#333333;stroke:#333333;}#mermaid-1637499466041 .marker.cross{stroke:#333333;}#mermaid-1637499466041 svg{font-family:"trebuchet ms",verdana,arial,sans-serif;font-size:16px;}#mermaid-1637499466041 .pieCircle{stroke:black;stroke-width:2px;opacity:0.7;}#mermaid-1637499466041 .pieTitleText{text-anchor:middle;font-size:25px;fill:black;font-family:"trebuchet ms",verdana,arial,sans-serif;}#mermaid-1637499466041 .slice{font-family:"trebuchet ms",verdana,arial,sans-serif;fill:#333;font-size:17px;}#mermaid-1637499466041 .legend text{fill:black;font-family:"trebuchet ms",verdana,arial,sans-serif;font-size:17px;}#mermaid-1637499466041 :root{--mermaid-font-family:"trebuchet ms",verdana,arial,sans-serif;}</style><g></g><g transform="translate(392,225)"><path d="M1.1327982892113017e-14,-185A185,185,0,0,1,160.21469970012112,92.50000000000004L0,0Z" fill="#ECECFF" class="pieCircle"></path><path d="M160.21469970012112,92.50000000000004A185,185,0,0,1,-125.83195648762012,135.61459628851784L0,0Z" fill="#ffffde" class="pieCircle"></path><path d="M-125.83195648762012,135.61459628851784A185,185,0,0,1,-104.21421074177006,-152.85417324845906L0,0Z" fill="hsl(80, 100%, 56.2745098039%)" class="pieCircle"></path><path d="M-104.21421074177006,-152.85417324845906A185,185,0,0,1,-54.529707266017205,-176.78096907043607L0,0Z" fill="hsl(240, 100%, 86.2745098039%)" class="pieCircle"></path><path d="M-54.529707266017205,-176.78096907043607A185,185,0,0,1,1.303290589681841e-13,-185L0,0Z" fill="hsl(60, 100%, 63.5294117647%)" class="pieCircle"></path><text transform="translate(80.10734985006059,-46.249999999999986)" class="slice" style="text-anchor: middle;">33%</text><text transform="translate(13.786409621296116,91.4668514258244)" class="slice" style="text-anchor: middle;">29%</text><text transform="translate(-92.24135123925916,-6.912533656744259)" class="slice" style="text-anchor: middle;">29%</text><text transform="translate(-40.134245868374144,-83.33962028097376)" class="slice" style="text-anchor: middle;">5%</text><text transform="translate(-13.786409621296043,-91.46685142582442)" class="slice" style="text-anchor: middle;">5%</text><text x="0" y="-200" class="pieTitleText"></text><g class="legend" transform="translate(216,-55)"><rect width="18" height="18" style="fill: rgb(236, 236, 255); stroke: rgb(236, 236, 255);"></rect><text x="22" y="14">SPQ</text></g><g class="legend" transform="translate(216,-33)"><rect width="18" height="18" style="fill: rgb(255, 255, 222); stroke: rgb(255, 255, 222);"></rect><text x="22" y="14">Pap</text></g><g class="legend" transform="translate(216,-11)"><rect width="18" height="18" style="fill: rgb(181, 255, 32); stroke: rgb(181, 255, 32);"></rect><text x="22" y="14">Rav</text></g><g class="legend" transform="translate(216,11)"><rect width="18" height="18" style="fill: rgb(185, 185, 255); stroke: rgb(185, 185, 255);"></rect><text x="22" y="14">Zak</text></g><g class="legend" transform="translate(216,33)"><rect width="18" height="18" style="fill: rgb(255, 255, 69); stroke: rgb(255, 255, 69);"></rect><text x="22" y="14">BF/HH</text></g></g></svg>