<svg id="mermaid-1637543943809" width="100%" xmlns="http://www.w3.org/2000/svg" height="450" style="max-width: 784px;" viewBox="0 0 784 450"><style>#mermaid-1637543943809 {font-family:"trebuchet ms",verdana,arial,sans-serif;font-size:16px;fill:#333;}#mermaid-1637543943809 .error-icon{fill:#552222;}#mermaid-1637543943809 .error-text{fill:#552222;stroke:#552222;}#mermaid-1637543943809 .edge-thickness-normal{stroke-width:2px;}#mermaid-1637543943809 .edge-thickness-thick{stroke-width:3.5px;}#mermaid-1637543943809 .edge-pattern-solid{stroke-dasharray:0;}#mermaid-1637543943809 .edge-pattern-dashed{stroke-dasharray:3;}#mermaid-1637543943809 .edge-pattern-dotted{stroke-dasharray:2;}#mermaid-1637543943809 .marker{fill:#333333;stroke:#333333;}#mermaid-1637543943809 .marker.cross{stroke:#333333;}#mermaid-1637543943809 svg{font-family:"trebuchet ms",verdana,arial,sans-serif;font-size:16px;}#mermaid-1637543943809 .pieCircle{stroke:black;stroke-width:2px;opacity:0.7;}#mermaid-1637543943809 .pieTitleText{text-anchor:middle;font-size:25px;fill:black;font-family:"trebuchet ms",verdana,arial,sans-serif;}#mermaid-1637543943809 .slice{font-family:"trebuchet ms",verdana,arial,sans-serif;fill:#333;font-size:17px;}#mermaid-1637543943809 .legend text{fill:black;font-family:"trebuchet ms",verdana,arial,sans-serif;font-size:17px;}#mermaid-1637543943809 :root{--mermaid-font-family:"trebuchet ms",verdana,arial,sans-serif;}</style><g></g><g transform="translate(392,225)"><path d="M1.1327982892113017e-14,-185A185,185,0,0,1,151.1394302069318,106.6858595912504L0,0Z" fill="#ECECFF" class="pieCircle"></path><path d="M-151.13943020693176,106.68585959125043A185,185,0,0,1,-96.12303075655521,-158.06758984110039L0,0Z" fill="#ffffde" class="pieCircle"></path><path d="M151.1394302069318,106.6858595912504A185,185,0,0,1,-151.13943020693176,106.68585959125043L0,0Z" fill="hsl(80, 100%, 56.2745098039%)" class="pieCircle"></path><path d="M-96.12303075655521,-158.06758984110039A185,185,0,0,1,-49.9124026640495,-178.13969815934286L0,0Z" fill="hsl(240, 100%, 86.2745098039%)" class="pieCircle"></path><path d="M-49.9124026640495,-178.13969815934286A185,185,0,0,1,-3.398394867633905e-14,-185L0,0Z" fill="hsl(60, 100%, 63.5294117647%)" class="pieCircle"></path><text transform="translate(82.12938270221971,-42.55601599013158)" class="slice" style="text-anchor: middle;">35%</text><text transform="translate(-90.56527811061488,-18.819681207368586)" class="slice" style="text-anchor: middle;">26%</text><text transform="translate(5.6639914460565085e-15,92.5)" class="slice" style="text-anchor: middle;">30%</text><text transform="translate(-36.8521008107773,-84.84204538925442)" class="slice" style="text-anchor: middle;">4%</text><text transform="translate(-12.59541504140286,-91.63845000836058)" class="slice" style="text-anchor: middle;">4%</text><text x="0" y="-200" class="pieTitleText"></text><g class="legend" transform="translate(216,-55)"><rect width="18" height="18" style="fill: rgb(236, 236, 255); stroke: rgb(236, 236, 255);"></rect><text x="22" y="14">SPQ</text></g><g class="legend" transform="translate(216,-33)"><rect width="18" height="18" style="fill: rgb(255, 255, 222); stroke: rgb(255, 255, 222);"></rect><text x="22" y="14">Pap</text></g><g class="legend" transform="translate(216,-11)"><rect width="18" height="18" style="fill: rgb(181, 255, 32); stroke: rgb(181, 255, 32);"></rect><text x="22" y="14">Rav</text></g><g class="legend" transform="translate(216,11)"><rect width="18" height="18" style="fill: rgb(185, 185, 255); stroke: rgb(185, 185, 255);"></rect><text x="22" y="14">Zak</text></g><g class="legend" transform="translate(216,33)"><rect width="18" height="18" style="fill: rgb(255, 255, 69); stroke: rgb(255, 255, 69);"></rect><text x="22" y="14">BF/HH</text></g></g></svg>