<svg id="mermaid-1637543947787" width="100%" xmlns="http://www.w3.org/2000/svg" height="450" style="max-width: 784px;" viewBox="0 0 784 450"><style>#mermaid-1637543947787 {font-family:"trebuchet ms",verdana,arial,sans-serif;font-size:16px;fill:#333;}#mermaid-1637543947787 .error-icon{fill:#552222;}#mermaid-1637543947787 .error-text{fill:#552222;stroke:#552222;}#mermaid-1637543947787 .edge-thickness-normal{stroke-width:2px;}#mermaid-1637543947787 .edge-thickness-thick{stroke-width:3.5px;}#mermaid-1637543947787 .edge-pattern-solid{stroke-dasharray:0;}#mermaid-1637543947787 .edge-pattern-dashed{stroke-dasharray:3;}#mermaid-1637543947787 .edge-pattern-dotted{stroke-dasharray:2;}#mermaid-1637543947787 .marker{fill:#333333;stroke:#333333;}#mermaid-1637543947787 .marker.cross{stroke:#333333;}#mermaid-1637543947787 svg{font-family:"trebuchet ms",verdana,arial,sans-serif;font-size:16px;}#mermaid-1637543947787 .pieCircle{stroke:black;stroke-width:2px;opacity:0.7;}#mermaid-1637543947787 .pieTitleText{text-anchor:middle;font-size:25px;fill:black;font-family:"trebuchet ms",verdana,arial,sans-serif;}#mermaid-1637543947787 .slice{font-family:"trebuchet ms",verdana,arial,sans-serif;fill:#333;font-size:17px;}#mermaid-1637543947787 .legend text{fill:black;font-family:"trebuchet ms",verdana,arial,sans-serif;font-size:17px;}#mermaid-1637543947787 :root{--mermaid-font-family:"trebuchet ms",verdana,arial,sans-serif;}</style><g></g><g transform="translate(392,225)"><path d="M1.1327982892113017e-14,-185A185,185,0,0,1,177.93774398697153,50.627653163335346L0,0Z" fill="#ECECFF" class="pieCircle"></path><path d="M177.93774398697153,50.627653163335346A185,185,0,0,1,-33.99366079606556,181.8500234415218L0,0Z" fill="#ffffde" class="pieCircle"></path><path d="M-33.99366079606556,181.8500234415218A185,185,0,0,1,-177.93774398697153,50.62765316333537L0,0Z" fill="hsl(80, 100%, 56.2745098039%)" class="pieCircle"></path><path d="M-177.93774398697153,50.62765316333537A185,185,0,0,1,-165.60520890068656,-82.46159581865949L0,0Z" fill="hsl(240, 100%, 86.2745098039%)" class="pieCircle"></path><path d="M-165.60520890068656,-82.46159581865949A185,185,0,0,1,-124.63369407461319,-136.71664968582184L0,0Z" fill="hsl(60, 100%, 63.5294117647%)" class="pieCircle"></path><path d="M-124.63369407461319,-136.71664968582184A185,185,0,0,1,-66.82970824462346,-172.50736243980577L0,0Z" fill="hsl(80, 100%, 76.2745098039%)" class="pieCircle"></path><path d="M-66.82970824462346,-172.50736243980577A185,185,0,0,1,-1.982969563208622e-13,-185L0,0Z" fill="hsl(300, 100%, 76.2745098039%)" class="pieCircle"></path><text transform="translate(73.81659352342216,-55.74370386508121)" class="slice" style="text-anchor: middle;">29%</text><text transform="translate(48.69497506615539,78.64508505498931)" class="slice" style="text-anchor: middle;">24%</text><text transform="translate(-62.316847037306545,68.35832484291096)" class="slice" style="text-anchor: middle;">18%</text><text transform="translate(-92.1054113072907,-8.5348232503554)" class="slice" style="text-anchor: middle;">12%</text><text transform="translate(-73.81659352342221,-55.74370386508114)" class="slice" style="text-anchor: middle;">6%</text><text transform="translate(-48.694975066155436,-78.6450850549893)" class="slice" style="text-anchor: middle;">6%</text><text transform="translate(-16.996830398032884,-90.92501172076089)" class="slice" style="text-anchor: middle;">6%</text><text x="0" y="-200" class="pieTitleText"></text><g class="legend" transform="translate(216,-77)"><rect width="18" height="18" style="fill: rgb(236, 236, 255); stroke: rgb(236, 236, 255);"></rect><text x="22" y="14">fine as-is</text></g><g class="legend" transform="translate(216,-55)"><rect width="18" height="18" style="fill: rgb(255, 255, 222); stroke: rgb(255, 255, 222);"></rect><text x="22" y="14">meme adverts</text></g><g class="legend" transform="translate(216,-33)"><rect width="18" height="18" style="fill: rgb(181, 255, 32); stroke: rgb(181, 255, 32);"></rect><text x="22" y="14">forums</text></g><g class="legend" transform="translate(216,-11)"><rect width="18" height="18" style="fill: rgb(185, 185, 255); stroke: rgb(185, 185, 255);"></rect><text x="22" y="14">recruit randoms</text></g><g class="legend" transform="translate(216,11)"><rect width="18" height="18" style="fill: rgb(255, 255, 69); stroke: rgb(255, 255, 69);"></rect><text x="22" y="14">smega</text></g><g class="legend" transform="translate(216,33)"><rect width="18" height="18" style="fill: rgb(215, 255, 134); stroke: rgb(215, 255, 134);"></rect><text x="22" y="14">ML Disc</text></g><g class="legend" transform="translate(216,55)"><rect width="18" height="18" style="fill: rgb(255, 134, 255); stroke: rgb(255, 134, 255);"></rect><text x="22" y="14">other MS servers</text></g></g></svg>