<svg id="mermaid-1637499470265" width="100%" xmlns="http://www.w3.org/2000/svg" height="450" style="max-width: 784px;" viewBox="0 0 784 450"><style>#mermaid-1637499470265 {font-family:"trebuchet ms",verdana,arial,sans-serif;font-size:16px;fill:#333;}#mermaid-1637499470265 .error-icon{fill:#552222;}#mermaid-1637499470265 .error-text{fill:#552222;stroke:#552222;}#mermaid-1637499470265 .edge-thickness-normal{stroke-width:2px;}#mermaid-1637499470265 .edge-thickness-thick{stroke-width:3.5px;}#mermaid-1637499470265 .edge-pattern-solid{stroke-dasharray:0;}#mermaid-1637499470265 .edge-pattern-dashed{stroke-dasharray:3;}#mermaid-1637499470265 .edge-pattern-dotted{stroke-dasharray:2;}#mermaid-1637499470265 .marker{fill:#333333;stroke:#333333;}#mermaid-1637499470265 .marker.cross{stroke:#333333;}#mermaid-1637499470265 svg{font-family:"trebuchet ms",verdana,arial,sans-serif;font-size:16px;}#mermaid-1637499470265 .pieCircle{stroke:black;stroke-width:2px;opacity:0.7;}#mermaid-1637499470265 .pieTitleText{text-anchor:middle;font-size:25px;fill:black;font-family:"trebuchet ms",verdana,arial,sans-serif;}#mermaid-1637499470265 .slice{font-family:"trebuchet ms",verdana,arial,sans-serif;fill:#333;font-size:17px;}#mermaid-1637499470265 .legend text{fill:black;font-family:"trebuchet ms",verdana,arial,sans-serif;font-size:17px;}#mermaid-1637499470265 :root{--mermaid-font-family:"trebuchet ms",verdana,arial,sans-serif;}</style><g></g><g transform="translate(392,225)"><path d="M1.1327982892113017e-14,-185A185,185,0,0,1,170.91771351458806,70.79643498754162L0,0Z" fill="#ECECFF" class="pieCircle"></path><path d="M170.91771351458806,70.79643498754162A185,185,0,0,1,-70.7964349875416,170.91771351458806L0,0Z" fill="#ffffde" class="pieCircle"></path><path d="M-70.7964349875416,170.91771351458806A185,185,0,0,1,-170.917713514588,70.7964349875417L0,0Z" fill="hsl(80, 100%, 56.2745098039%)" class="pieCircle"></path><path d="M-170.917713514588,70.7964349875417A185,185,0,0,1,-170.9177135145881,-70.7964349875415L0,0Z" fill="hsl(240, 100%, 86.2745098039%)" class="pieCircle"></path><path d="M-170.9177135145881,-70.7964349875415A185,185,0,0,1,-130.8147545195114,-130.81475451951115L0,0Z" fill="hsl(60, 100%, 63.5294117647%)" class="pieCircle"></path><path d="M-130.8147545195114,-130.81475451951115A185,185,0,0,1,-70.79643498754172,-170.917713514588L0,0Z" fill="hsl(80, 100%, 76.2745098039%)" class="pieCircle"></path><path d="M-70.79643498754172,-170.917713514588A185,185,0,0,1,-3.398394867633905e-14,-185L0,0Z" fill="hsl(300, 100%, 76.2745098039%)" class="pieCircle"></path><text transform="translate(76.91093913798544,-51.3902465543132)" class="slice" style="text-anchor: middle;">31%</text><text transform="translate(35.39821749377081,85.45885675729403)" class="slice" style="text-anchor: middle;">25%</text><text transform="translate(-65.40737725975563,65.40737725975565)" class="slice" style="text-anchor: middle;">13%</text><text transform="translate(-92.5,1.1327982892113017e-14)" class="slice" style="text-anchor: middle;">13%</text><text transform="translate(-76.91093913798545,-51.39024655431318)" class="slice" style="text-anchor: middle;">6%</text><text transform="translate(-51.39024655431327,-76.9109391379854)" class="slice" style="text-anchor: middle;">6%</text><text transform="translate(-18.0458547864919,-90.7226384372988)" class="slice" style="text-anchor: middle;">6%</text><text x="0" y="-200" class="pieTitleText"></text><g class="legend" transform="translate(216,-77)"><rect width="18" height="18" style="fill: rgb(236, 236, 255); stroke: rgb(236, 236, 255);"></rect><text x="22" y="14">fine as-is</text></g><g class="legend" transform="translate(216,-55)"><rect width="18" height="18" style="fill: rgb(255, 255, 222); stroke: rgb(255, 255, 222);"></rect><text x="22" y="14">meme adverts</text></g><g class="legend" transform="translate(216,-33)"><rect width="18" height="18" style="fill: rgb(181, 255, 32); stroke: rgb(181, 255, 32);"></rect><text x="22" y="14">forums</text></g><g class="legend" transform="translate(216,-11)"><rect width="18" height="18" style="fill: rgb(185, 185, 255); stroke: rgb(185, 185, 255);"></rect><text x="22" y="14">recruit randoms</text></g><g class="legend" transform="translate(216,11)"><rect width="18" height="18" style="fill: rgb(255, 255, 69); stroke: rgb(255, 255, 69);"></rect><text x="22" y="14">smega</text></g><g class="legend" transform="translate(216,33)"><rect width="18" height="18" style="fill: rgb(215, 255, 134); stroke: rgb(215, 255, 134);"></rect><text x="22" y="14">ML Disc</text></g><g class="legend" transform="translate(216,55)"><rect width="18" height="18" style="fill: rgb(255, 134, 255); stroke: rgb(255, 134, 255);"></rect><text x="22" y="14">other MS servers</text></g></g></svg>