<svg id="mermaid-1637476745813" width="100%" xmlns="http://www.w3.org/2000/svg" height="450" style="max-width: 784px;" viewBox="0 0 784 450"><style>#mermaid-1637476745813 {font-family:"trebuchet ms",verdana,arial,sans-serif;font-size:16px;fill:#333;}#mermaid-1637476745813 .error-icon{fill:#552222;}#mermaid-1637476745813 .error-text{fill:#552222;stroke:#552222;}#mermaid-1637476745813 .edge-thickness-normal{stroke-width:2px;}#mermaid-1637476745813 .edge-thickness-thick{stroke-width:3.5px;}#mermaid-1637476745813 .edge-pattern-solid{stroke-dasharray:0;}#mermaid-1637476745813 .edge-pattern-dashed{stroke-dasharray:3;}#mermaid-1637476745813 .edge-pattern-dotted{stroke-dasharray:2;}#mermaid-1637476745813 .marker{fill:#333333;stroke:#333333;}#mermaid-1637476745813 .marker.cross{stroke:#333333;}#mermaid-1637476745813 svg{font-family:"trebuchet ms",verdana,arial,sans-serif;font-size:16px;}#mermaid-1637476745813 .pieCircle{stroke:black;stroke-width:2px;opacity:0.7;}#mermaid-1637476745813 .pieTitleText{text-anchor:middle;font-size:25px;fill:black;font-family:"trebuchet ms",verdana,arial,sans-serif;}#mermaid-1637476745813 .slice{font-family:"trebuchet ms",verdana,arial,sans-serif;fill:#333;font-size:17px;}#mermaid-1637476745813 .legend text{fill:black;font-family:"trebuchet ms",verdana,arial,sans-serif;font-size:17px;}#mermaid-1637476745813 :root{--mermaid-font-family:"trebuchet ms",verdana,arial,sans-serif;}</style><g></g><g transform="translate(392,225)"><path d="M1.1327982892113017e-14,-185A185,185,0,0,1,180.36166375363737,41.16637278191816L0,0Z" fill="#ECECFF" class="pieCircle"></path><path d="M180.36166375363737,41.16637278191816A185,185,0,0,1,1.1327982892113017e-14,185L0,0Z" fill="#ffffde" class="pieCircle"></path><path d="M1.1327982892113017e-14,185A185,185,0,0,1,-144.63882425658548,115.34561334386572L0,0Z" fill="hsl(80, 100%, 56.2745098039%)" class="pieCircle"></path><path d="M-144.63882425658548,115.34561334386572A185,185,0,0,1,-180.36166375363737,-41.16637278191814L0,0Z" fill="hsl(240, 100%, 86.2745098039%)" class="pieCircle"></path><path d="M-180.36166375363737,-41.16637278191814A185,185,0,0,1,-144.63882425658554,-115.34561334386568L0,0Z" fill="hsl(60, 100%, 63.5294117647%)" class="pieCircle"></path><path d="M-144.63882425658554,-115.34561334386568A185,185,0,0,1,-80.26849173674829,-166.67924056194752L0,0Z" fill="hsl(80, 100%, 76.2745098039%)" class="pieCircle"></path><path d="M-80.26849173674829,-166.67924056194752A185,185,0,0,1,-3.398394867633905e-14,-185L0,0Z" fill="hsl(300, 100%, 76.2745098039%)" class="pieCircle"></path><text transform="translate(72.31941212829275,-57.67280667193285)" class="slice" style="text-anchor: middle;">29%</text><text transform="translate(57.67280667193286,72.31941212829275)" class="slice" style="text-anchor: middle;">21%</text><text transform="translate(-40.13424586837412,83.33962028097378)" class="slice" style="text-anchor: middle;">14%</text><text transform="translate(-90.18083187681869,20.583186390959092)" class="slice" style="text-anchor: middle;">14%</text><text transform="translate(-83.33962028097378,-40.134245868374116)" class="slice" style="text-anchor: middle;">7%</text><text transform="translate(-57.67280667193287,-72.31941212829274)" class="slice" style="text-anchor: middle;">7%</text><text transform="translate(-20.5831863909591,-90.18083187681869)" class="slice" style="text-anchor: middle;">7%</text><text x="0" y="-200" class="pieTitleText"></text><g class="legend" transform="translate(216,-77)"><rect width="18" height="18" style="fill: rgb(236, 236, 255); stroke: rgb(236, 236, 255);"></rect><text x="22" y="14">fine as-is</text></g><g class="legend" transform="translate(216,-55)"><rect width="18" height="18" style="fill: rgb(255, 255, 222); stroke: rgb(255, 255, 222);"></rect><text x="22" y="14">meme adverts</text></g><g class="legend" transform="translate(216,-33)"><rect width="18" height="18" style="fill: rgb(181, 255, 32); stroke: rgb(181, 255, 32);"></rect><text x="22" y="14">forums</text></g><g class="legend" transform="translate(216,-11)"><rect width="18" height="18" style="fill: rgb(185, 185, 255); stroke: rgb(185, 185, 255);"></rect><text x="22" y="14">recruit randoms</text></g><g class="legend" transform="translate(216,11)"><rect width="18" height="18" style="fill: rgb(255, 255, 69); stroke: rgb(255, 255, 69);"></rect><text x="22" y="14">smega</text></g><g class="legend" transform="translate(216,33)"><rect width="18" height="18" style="fill: rgb(215, 255, 134); stroke: rgb(215, 255, 134);"></rect><text x="22" y="14">ML Disc</text></g><g class="legend" transform="translate(216,55)"><rect width="18" height="18" style="fill: rgb(255, 134, 255); stroke: rgb(255, 134, 255);"></rect><text x="22" y="14">other MS servers</text></g></g></svg>